<mxfile host="Electron" agent="Mozilla/5.0 (X11; Linux x86_64) AppleWebKit/537.36 (KHTML, like Gecko) draw.io/28.0.6 Chrome/138.0.7204.100 Electron/37.2.3 Safari/537.36" version="28.0.6">
  <diagram name="VESC and IMU Sensor Data Acquisition Loop" id="vesc-imu-loop">
    <mxGraphModel dx="1425" dy="940" grid="1" gridSize="10" guides="1" tooltips="1" connect="1" arrows="1" fold="1" page="1" pageScale="1" pageWidth="827" pageHeight="1169" background="none" math="0" shadow="0">
      <root>
        <mxCell id="0" />
        <mxCell id="1" parent="0" />
        <mxCell id="fAZtXP8lKx3NjYbzB7GW-26" style="edgeStyle=orthogonalEdgeStyle;rounded=0;orthogonalLoop=1;jettySize=auto;html=1;entryX=0;entryY=0.5;entryDx=0;entryDy=0;strokeColor=#FF0000;" parent="1" source="aS26uo4P6hbQug-4ugDL-22" target="fAZtXP8lKx3NjYbzB7GW-1" edge="1">
          <mxGeometry relative="1" as="geometry" />
        </mxCell>
        <mxCell id="aS26uo4P6hbQug-4ugDL-22" value="" style="ellipse;html=1;shape=startState;fillColor=#000000;strokeColor=#ff0000;" parent="1" vertex="1">
          <mxGeometry x="140" y="295" width="50" height="50" as="geometry" />
        </mxCell>
        <mxCell id="fAZtXP8lKx3NjYbzB7GW-1" value="&lt;div&gt;&lt;font style=&quot;color: rgb(0, 0, 0);&quot;&gt;Extract the last data item from the VESC State buffer&lt;/font&gt;&lt;/div&gt;" style="rounded=1;whiteSpace=wrap;html=1;arcSize=40;fontColor=#000000;fillColor=#ffffc0;strokeColor=#ff0000;labelBackgroundColor=none;" parent="1" vertex="1">
          <mxGeometry x="330" y="290" width="150" height="60" as="geometry" />
        </mxCell>
        <mxCell id="fAZtXP8lKx3NjYbzB7GW-2" value="&lt;div&gt;&lt;font style=&quot;color: rgb(0, 0, 0);&quot;&gt;Obtain the ERPM value from the data item&lt;/font&gt;&lt;/div&gt;" style="rounded=1;whiteSpace=wrap;html=1;arcSize=40;fontColor=#000000;fillColor=#ffffc0;strokeColor=#ff0000;labelBackgroundColor=none;" parent="1" vertex="1">
          <mxGeometry x="580" y="290" width="150" height="60" as="geometry" />
        </mxCell>
        <mxCell id="fAZtXP8lKx3NjYbzB7GW-3" value="&lt;div&gt;&lt;font style=&quot;color: rgb(0, 0, 0);&quot;&gt;Add the ERPM value and its timestamp to the paddle detection strategy&lt;/font&gt;&lt;/div&gt;" style="rounded=1;whiteSpace=wrap;html=1;arcSize=40;fontColor=#000000;fillColor=#ffffc0;strokeColor=#ff0000;labelBackgroundColor=none;" parent="1" vertex="1">
          <mxGeometry x="827" y="290" width="150" height="60" as="geometry" />
        </mxCell>
        <mxCell id="fAZtXP8lKx3NjYbzB7GW-4" value="&lt;div&gt;&lt;font style=&quot;color: rgb(0, 0, 0);&quot;&gt;Get the latest computed velocity curve from the paddle detection strategy&lt;/font&gt;&lt;/div&gt;" style="rounded=1;whiteSpace=wrap;html=1;arcSize=40;fontColor=#000000;fillColor=#ffffc0;strokeColor=#ff0000;labelBackgroundColor=none;" parent="1" vertex="1">
          <mxGeometry x="1110" y="290" width="150" height="60" as="geometry" />
        </mxCell>
        <mxCell id="fAZtXP8lKx3NjYbzB7GW-5" value="&lt;font color=&quot;#000000&quot;&gt;Velocity curve empty&lt;/font&gt;" style="rhombus;whiteSpace=wrap;html=1;fontColor=#000000;fillColor=#ffffc0;strokeColor=#ff0000;labelBackgroundColor=none;" parent="1" vertex="1">
          <mxGeometry x="1135" y="450" width="100" height="100" as="geometry" />
        </mxCell>
        <mxCell id="fAZtXP8lKx3NjYbzB7GW-7" value="X is the time delay in milliseconds the loop pauses before extracting the next data item from the buffer" style="shape=note;whiteSpace=wrap;html=1;backgroundOutline=1;darkOpacity=0.05;" parent="1" vertex="1">
          <mxGeometry x="130" y="700" width="180" height="90" as="geometry" />
        </mxCell>
        <mxCell id="fAZtXP8lKx3NjYbzB7GW-12" value="" style="edgeStyle=orthogonalEdgeStyle;html=1;verticalAlign=bottom;endArrow=open;endSize=8;strokeColor=#ff0000;rounded=0;exitX=1;exitY=0.5;exitDx=0;exitDy=0;" parent="1" source="fAZtXP8lKx3NjYbzB7GW-1" edge="1">
          <mxGeometry relative="1" as="geometry">
            <mxPoint x="580" y="320" as="targetPoint" />
            <mxPoint x="500" y="319.58" as="sourcePoint" />
          </mxGeometry>
        </mxCell>
        <mxCell id="fAZtXP8lKx3NjYbzB7GW-13" value="" style="edgeStyle=orthogonalEdgeStyle;html=1;verticalAlign=bottom;endArrow=open;endSize=8;strokeColor=#ff0000;rounded=0;exitX=1;exitY=0.5;exitDx=0;exitDy=0;entryX=0;entryY=0.5;entryDx=0;entryDy=0;" parent="1" source="fAZtXP8lKx3NjYbzB7GW-2" target="fAZtXP8lKx3NjYbzB7GW-3" edge="1">
          <mxGeometry relative="1" as="geometry">
            <mxPoint x="800" y="320" as="targetPoint" />
            <mxPoint x="740" y="319.58" as="sourcePoint" />
          </mxGeometry>
        </mxCell>
        <mxCell id="fAZtXP8lKx3NjYbzB7GW-14" value="" style="edgeStyle=orthogonalEdgeStyle;html=1;verticalAlign=bottom;endArrow=open;endSize=8;strokeColor=#ff0000;rounded=0;exitX=1;exitY=0.5;exitDx=0;exitDy=0;entryX=0;entryY=0.5;entryDx=0;entryDy=0;" parent="1" source="fAZtXP8lKx3NjYbzB7GW-3" target="fAZtXP8lKx3NjYbzB7GW-4" edge="1">
          <mxGeometry relative="1" as="geometry">
            <mxPoint x="1100" y="320" as="targetPoint" />
            <mxPoint x="1020" y="319.58" as="sourcePoint" />
          </mxGeometry>
        </mxCell>
        <mxCell id="fAZtXP8lKx3NjYbzB7GW-15" value="" style="edgeStyle=orthogonalEdgeStyle;html=1;align=left;verticalAlign=top;endArrow=open;endSize=8;strokeColor=#ff0000;rounded=0;entryX=0.5;entryY=0;entryDx=0;entryDy=0;exitX=0.5;exitY=1;exitDx=0;exitDy=0;" parent="1" source="fAZtXP8lKx3NjYbzB7GW-4" target="fAZtXP8lKx3NjYbzB7GW-5" edge="1">
          <mxGeometry x="-1" relative="1" as="geometry">
            <mxPoint x="1184.58" y="390" as="targetPoint" />
            <mxPoint x="1185" y="370" as="sourcePoint" />
          </mxGeometry>
        </mxCell>
        <mxCell id="fAZtXP8lKx3NjYbzB7GW-16" value="no" style="edgeStyle=orthogonalEdgeStyle;html=1;align=left;verticalAlign=bottom;endArrow=open;endSize=8;strokeColor=#ff0000;rounded=0;exitX=0.5;exitY=1;exitDx=0;exitDy=0;entryX=1;entryY=0.5;entryDx=0;entryDy=0;" parent="1" source="fAZtXP8lKx3NjYbzB7GW-5" target="fAZtXP8lKx3NjYbzB7GW-18" edge="1">
          <mxGeometry x="-0.7516" y="5" relative="1" as="geometry">
            <mxPoint x="1185" y="630" as="targetPoint" />
            <mxPoint x="1181" y="623.3333333333335" as="sourcePoint" />
            <mxPoint as="offset" />
          </mxGeometry>
        </mxCell>
        <mxCell id="fAZtXP8lKx3NjYbzB7GW-19" style="edgeStyle=orthogonalEdgeStyle;rounded=0;orthogonalLoop=1;jettySize=auto;html=1;strokeColor=#FF0000;entryX=1;entryY=0.5;entryDx=0;entryDy=0;exitX=0.5;exitY=1;exitDx=0;exitDy=0;" parent="1" source="fAZtXP8lKx3NjYbzB7GW-18" target="fAZtXP8lKx3NjYbzB7GW-20" edge="1">
          <mxGeometry relative="1" as="geometry">
            <mxPoint x="930" y="819.97" as="targetPoint" />
            <mxPoint x="1045" y="724.97" as="sourcePoint" />
            <Array as="points">
              <mxPoint x="1045" y="830" />
            </Array>
          </mxGeometry>
        </mxCell>
        <mxCell id="fAZtXP8lKx3NjYbzB7GW-18" value="&lt;div&gt;&lt;font style=&quot;color: rgb(0, 0, 0);&quot;&gt;Activate the motor control scheme task with this velocity curve as the input.&lt;/font&gt;&lt;/div&gt;" style="rounded=1;whiteSpace=wrap;html=1;arcSize=40;fontColor=#000000;fillColor=#ffffc0;strokeColor=#ff0000;labelBackgroundColor=none;" parent="1" vertex="1">
          <mxGeometry x="970" y="620" width="150" height="60" as="geometry" />
        </mxCell>
        <mxCell id="fAZtXP8lKx3NjYbzB7GW-24" style="edgeStyle=orthogonalEdgeStyle;rounded=0;orthogonalLoop=1;jettySize=auto;html=1;entryX=1;entryY=0.5;entryDx=0;entryDy=0;strokeColor=#FF0000;" parent="1" source="fAZtXP8lKx3NjYbzB7GW-20" target="fAZtXP8lKx3NjYbzB7GW-21" edge="1">
          <mxGeometry relative="1" as="geometry" />
        </mxCell>
        <mxCell id="fAZtXP8lKx3NjYbzB7GW-20" value="&lt;div&gt;&lt;font style=&quot;color: rgb(0, 0, 0);&quot;&gt;Wait Y milliseconds&lt;/font&gt;&lt;/div&gt;" style="rounded=1;whiteSpace=wrap;html=1;arcSize=40;fontColor=#000000;fillColor=#ffffc0;strokeColor=#ff0000;labelBackgroundColor=none;" parent="1" vertex="1">
          <mxGeometry x="827" y="799.97" width="150" height="60" as="geometry" />
        </mxCell>
        <mxCell id="fAZtXP8lKx3NjYbzB7GW-22" style="edgeStyle=orthogonalEdgeStyle;rounded=0;orthogonalLoop=1;jettySize=auto;html=1;entryX=0.5;entryY=0;entryDx=0;entryDy=0;exitX=0.5;exitY=0;exitDx=0;exitDy=0;strokeColor=#FF0000;" parent="1" source="fAZtXP8lKx3NjYbzB7GW-21" target="fAZtXP8lKx3NjYbzB7GW-20" edge="1">
          <mxGeometry relative="1" as="geometry">
            <mxPoint x="655" y="709.97" as="targetPoint" />
            <Array as="points">
              <mxPoint x="655" y="719.97" />
              <mxPoint x="902" y="719.97" />
            </Array>
          </mxGeometry>
        </mxCell>
        <mxCell id="fAZtXP8lKx3NjYbzB7GW-23" value="no" style="edgeLabel;html=1;align=center;verticalAlign=middle;resizable=0;points=[];" parent="fAZtXP8lKx3NjYbzB7GW-22" vertex="1" connectable="0">
          <mxGeometry x="-0.907" relative="1" as="geometry">
            <mxPoint x="15" as="offset" />
          </mxGeometry>
        </mxCell>
        <mxCell id="fAZtXP8lKx3NjYbzB7GW-25" style="edgeStyle=orthogonalEdgeStyle;rounded=0;orthogonalLoop=1;jettySize=auto;html=1;entryX=0.57;entryY=1.047;entryDx=0;entryDy=0;entryPerimeter=0;strokeColor=#FF0000;" parent="1" source="fAZtXP8lKx3NjYbzB7GW-21" target="fAZtXP8lKx3NjYbzB7GW-1" edge="1">
          <mxGeometry relative="1" as="geometry">
            <mxPoint x="410" y="750" as="targetPoint" />
          </mxGeometry>
        </mxCell>
        <mxCell id="fAZtXP8lKx3NjYbzB7GW-27" value="yes" style="edgeLabel;html=1;align=center;verticalAlign=middle;resizable=0;points=[];" parent="fAZtXP8lKx3NjYbzB7GW-25" vertex="1" connectable="0">
          <mxGeometry x="-0.9648" relative="1" as="geometry">
            <mxPoint y="-10" as="offset" />
          </mxGeometry>
        </mxCell>
        <mxCell id="fAZtXP8lKx3NjYbzB7GW-21" value="&lt;font color=&quot;#000000&quot;&gt;Motor Control Scheme Task Finished&lt;/font&gt;" style="rhombus;whiteSpace=wrap;html=1;fontColor=#000000;fillColor=#ffffc0;strokeColor=#ff0000;labelBackgroundColor=none;" parent="1" vertex="1">
          <mxGeometry x="605" y="779.97" width="100" height="100" as="geometry" />
        </mxCell>
        <mxCell id="eMyCsJswiJw5nvNEosrz-2" value="" style="edgeStyle=orthogonalEdgeStyle;html=1;align=left;verticalAlign=bottom;endArrow=open;endSize=8;strokeColor=#ff0000;rounded=0;exitX=0;exitY=0.5;exitDx=0;exitDy=0;" parent="1" source="fAZtXP8lKx3NjYbzB7GW-5" target="eMyCsJswiJw5nvNEosrz-1" edge="1">
          <mxGeometry x="-0.9259" relative="1" as="geometry">
            <mxPoint x="730" y="500" as="targetPoint" />
            <mxPoint x="1135" y="500" as="sourcePoint" />
            <mxPoint as="offset" />
          </mxGeometry>
        </mxCell>
        <mxCell id="eMyCsJswiJw5nvNEosrz-3" value="&lt;span style=&quot;text-align: left;&quot;&gt;yes&lt;/span&gt;" style="edgeLabel;html=1;align=center;verticalAlign=middle;resizable=0;points=[];" parent="eMyCsJswiJw5nvNEosrz-2" vertex="1" connectable="0">
          <mxGeometry x="-0.8811" y="-2" relative="1" as="geometry">
            <mxPoint y="-8" as="offset" />
          </mxGeometry>
        </mxCell>
        <mxCell id="eMyCsJswiJw5nvNEosrz-1" value="&lt;div&gt;&lt;font style=&quot;color: rgb(0, 0, 0);&quot;&gt;Add the ERPM value and its timestamp to the braking detection strategy&lt;/font&gt;&lt;/div&gt;" style="rounded=1;whiteSpace=wrap;html=1;arcSize=40;fontColor=#000000;fillColor=#ffffc0;strokeColor=#ff0000;labelBackgroundColor=none;" parent="1" vertex="1">
          <mxGeometry x="810" y="470" width="150" height="60" as="geometry" />
        </mxCell>
        <mxCell id="eMyCsJswiJw5nvNEosrz-5" value="" style="edgeStyle=orthogonalEdgeStyle;html=1;align=left;verticalAlign=bottom;endArrow=open;endSize=8;strokeColor=#ff0000;rounded=0;exitX=0;exitY=0.5;exitDx=0;exitDy=0;" parent="1" source="eMyCsJswiJw5nvNEosrz-1" target="eMyCsJswiJw5nvNEosrz-4" edge="1">
          <mxGeometry x="-0.9259" relative="1" as="geometry">
            <mxPoint x="350" y="500" as="targetPoint" />
            <mxPoint x="860" y="500" as="sourcePoint" />
            <mxPoint as="offset" />
          </mxGeometry>
        </mxCell>
        <mxCell id="eMyCsJswiJw5nvNEosrz-15" style="edgeStyle=orthogonalEdgeStyle;rounded=0;orthogonalLoop=1;jettySize=auto;html=1;entryX=0.5;entryY=0;entryDx=0;entryDy=0;strokeColor=#FF0000;" parent="1" source="eMyCsJswiJw5nvNEosrz-4" target="eMyCsJswiJw5nvNEosrz-11" edge="1">
          <mxGeometry relative="1" as="geometry" />
        </mxCell>
        <mxCell id="eMyCsJswiJw5nvNEosrz-4" value="&lt;div&gt;&lt;font style=&quot;color: rgb(0, 0, 0);&quot;&gt;Get the latest computed velocity curve from the braking detection strategy&lt;/font&gt;&lt;/div&gt;" style="rounded=1;whiteSpace=wrap;html=1;arcSize=40;fontColor=#000000;fillColor=#ffffc0;strokeColor=#ff0000;labelBackgroundColor=none;" parent="1" vertex="1">
          <mxGeometry x="525" y="470" width="150" height="60" as="geometry" />
        </mxCell>
        <mxCell id="eMyCsJswiJw5nvNEosrz-11" value="&lt;font color=&quot;#000000&quot;&gt;Velocity curve empty&lt;/font&gt;" style="rhombus;whiteSpace=wrap;html=1;fontColor=#000000;fillColor=#ffffc0;strokeColor=#ff0000;labelBackgroundColor=none;" parent="1" vertex="1">
          <mxGeometry x="550" y="600" width="100" height="100" as="geometry" />
        </mxCell>
        <mxCell id="eMyCsJswiJw5nvNEosrz-12" value="no" style="edgeStyle=orthogonalEdgeStyle;html=1;align=left;verticalAlign=bottom;endArrow=open;endSize=8;strokeColor=#ff0000;rounded=0;exitX=1;exitY=0.5;exitDx=0;exitDy=0;entryX=0;entryY=0.5;entryDx=0;entryDy=0;" parent="1" source="eMyCsJswiJw5nvNEosrz-11" target="fAZtXP8lKx3NjYbzB7GW-18" edge="1">
          <mxGeometry x="-0.9394" relative="1" as="geometry">
            <mxPoint x="900" y="650" as="targetPoint" />
            <mxPoint x="591" y="773.3633333333335" as="sourcePoint" />
            <mxPoint as="offset" />
            <Array as="points" />
          </mxGeometry>
        </mxCell>
        <mxCell id="eMyCsJswiJw5nvNEosrz-13" value="" style="edgeStyle=orthogonalEdgeStyle;html=1;align=left;verticalAlign=bottom;endArrow=open;endSize=8;strokeColor=#ff0000;rounded=0;entryX=0.47;entryY=1.031;entryDx=0;entryDy=0;entryPerimeter=0;exitX=0;exitY=0.5;exitDx=0;exitDy=0;" parent="1" source="eMyCsJswiJw5nvNEosrz-11" target="eMyCsJswiJw5nvNEosrz-16" edge="1">
          <mxGeometry x="-0.9259" relative="1" as="geometry">
            <mxPoint x="240" y="649.71" as="targetPoint" />
            <mxPoint x="540" y="650" as="sourcePoint" />
            <mxPoint as="offset" />
          </mxGeometry>
        </mxCell>
        <mxCell id="eMyCsJswiJw5nvNEosrz-14" value="&lt;span style=&quot;text-align: left;&quot;&gt;yes&lt;/span&gt;" style="edgeLabel;html=1;align=center;verticalAlign=middle;resizable=0;points=[];" parent="eMyCsJswiJw5nvNEosrz-13" vertex="1" connectable="0">
          <mxGeometry x="-0.8811" y="-2" relative="1" as="geometry">
            <mxPoint x="-7" y="-8" as="offset" />
          </mxGeometry>
        </mxCell>
        <mxCell id="eMyCsJswiJw5nvNEosrz-16" value="&lt;div&gt;&lt;font style=&quot;color: rgb(0, 0, 0);&quot;&gt;Wait X milliseconds&lt;/font&gt;&lt;/div&gt;" style="rounded=1;whiteSpace=wrap;html=1;arcSize=40;fontColor=#000000;fillColor=#ffffc0;strokeColor=#ff0000;labelBackgroundColor=none;" parent="1" vertex="1">
          <mxGeometry x="170" y="525" width="150" height="60" as="geometry" />
        </mxCell>
        <mxCell id="eMyCsJswiJw5nvNEosrz-17" style="edgeStyle=orthogonalEdgeStyle;rounded=0;orthogonalLoop=1;jettySize=auto;html=1;entryX=0.363;entryY=1.012;entryDx=0;entryDy=0;entryPerimeter=0;strokeColor=#FF0000;" parent="1" source="eMyCsJswiJw5nvNEosrz-16" target="fAZtXP8lKx3NjYbzB7GW-1" edge="1">
          <mxGeometry relative="1" as="geometry" />
        </mxCell>
        <mxCell id="eMyCsJswiJw5nvNEosrz-18" style="edgeStyle=orthogonalEdgeStyle;rounded=0;orthogonalLoop=1;jettySize=auto;html=1;entryX=0.336;entryY=1;entryDx=0;entryDy=0;entryPerimeter=0;" parent="1" source="fAZtXP8lKx3NjYbzB7GW-7" target="eMyCsJswiJw5nvNEosrz-16" edge="1">
          <mxGeometry relative="1" as="geometry" />
        </mxCell>
        <mxCell id="eMyCsJswiJw5nvNEosrz-21" style="edgeStyle=orthogonalEdgeStyle;rounded=0;orthogonalLoop=1;jettySize=auto;html=1;entryX=0.5;entryY=1;entryDx=0;entryDy=0;" parent="1" source="eMyCsJswiJw5nvNEosrz-19" target="fAZtXP8lKx3NjYbzB7GW-20" edge="1">
          <mxGeometry relative="1" as="geometry" />
        </mxCell>
        <mxCell id="eMyCsJswiJw5nvNEosrz-19" value="Y is the time delay in milliseconds that is determined dynamically by the Motor Control Scheme Task" style="shape=note;whiteSpace=wrap;html=1;backgroundOutline=1;darkOpacity=0.05;" parent="1" vertex="1">
          <mxGeometry x="812" y="920" width="180" height="90" as="geometry" />
        </mxCell>
        <mxCell id="eMyCsJswiJw5nvNEosrz-23" style="edgeStyle=orthogonalEdgeStyle;rounded=0;orthogonalLoop=1;jettySize=auto;html=1;entryX=1;entryY=0.75;entryDx=0;entryDy=0;" parent="1" source="eMyCsJswiJw5nvNEosrz-22" target="fAZtXP8lKx3NjYbzB7GW-20" edge="1">
          <mxGeometry relative="1" as="geometry" />
        </mxCell>
        <mxCell id="eMyCsJswiJw5nvNEosrz-22" value="Instead of waiting and checking to see if the Motor Control Task is finished, the task could notify that it is done. This needs to be looked into." style="shape=note;whiteSpace=wrap;html=1;backgroundOutline=1;darkOpacity=0.05;" parent="1" vertex="1">
          <mxGeometry x="1120" y="910" width="190" height="100" as="geometry" />
        </mxCell>
      </root>
    </mxGraphModel>
  </diagram>
</mxfile>
